<svg width="60" height="60" viewBox="0 0 60 60" fill="none" xmlns="http://www.w3.org/2000/svg">
<circle cx="30" cy="30" r="30" fill="white"/>
<path d="M5.1733 39V19.3636H10.3636V22.8281H10.5938C11.0028 21.6776 11.6847 20.7699 12.6392 20.1051C13.5938 19.4403 14.7358 19.108 16.0653 19.108C17.4119 19.108 18.5582 19.4446 19.5043 20.1179C20.4503 20.7827 21.081 21.6861 21.3963 22.8281H21.6009C22.0014 21.7031 22.7259 20.804 23.7741 20.1307C24.831 19.4489 26.0795 19.108 27.5199 19.108C29.3523 19.108 30.8395 19.6918 31.9815 20.8594C33.1321 22.0185 33.7074 23.6634 33.7074 25.794V39H28.2741V26.8679C28.2741 25.777 27.9844 24.9588 27.4048 24.4134C26.8253 23.8679 26.1009 23.5952 25.2315 23.5952C24.2429 23.5952 23.4716 23.9105 22.9176 24.5412C22.3636 25.1634 22.0866 25.9858 22.0866 27.0085V39H16.8068V26.7528C16.8068 25.7898 16.5298 25.0227 15.9759 24.4517C15.4304 23.8807 14.7102 23.5952 13.8153 23.5952C13.2102 23.5952 12.6648 23.7486 12.179 24.0554C11.7017 24.3537 11.3224 24.7756 11.0412 25.321C10.7599 25.858 10.6193 26.4886 10.6193 27.2131V39H5.1733ZM46.9581 39.3835C44.9382 39.3835 43.1996 38.9744 41.7422 38.1562C40.2933 37.3295 39.1768 36.1619 38.3928 34.6534C37.6087 33.1364 37.2166 31.3423 37.2166 29.2713C37.2166 27.2514 37.6087 25.4787 38.3928 23.9531C39.1768 22.4276 40.2805 21.2386 41.7038 20.3864C43.1357 19.5341 44.8146 19.108 46.7408 19.108C48.0362 19.108 49.2422 19.3168 50.3587 19.7344C51.4837 20.1435 52.4638 20.7614 53.299 21.5881C54.1428 22.4148 54.799 23.4545 55.2678 24.7074C55.7365 25.9517 55.9709 27.4091 55.9709 29.0795V30.5753H39.3899V27.2003H50.8445C50.8445 26.4162 50.674 25.7216 50.3331 25.1165C49.9922 24.5114 49.5192 24.0384 48.9141 23.6974C48.3175 23.348 47.6229 23.1733 46.8303 23.1733C46.0036 23.1733 45.2706 23.3651 44.6314 23.7486C44.0007 24.1236 43.5064 24.6307 43.1484 25.2699C42.7905 25.9006 42.6072 26.6037 42.5987 27.3793V30.5881C42.5987 31.5597 42.7777 32.3991 43.1357 33.1065C43.5021 33.8139 44.0178 34.3594 44.6825 34.7429C45.3473 35.1264 46.1357 35.3182 47.0476 35.3182C47.6527 35.3182 48.2067 35.233 48.7095 35.0625C49.2124 34.892 49.6428 34.6364 50.0007 34.2955C50.3587 33.9545 50.6314 33.5369 50.8189 33.0426L55.8558 33.375C55.6001 34.5852 55.076 35.642 54.2834 36.5455C53.4993 37.4403 52.4851 38.1392 51.2408 38.642C50.005 39.1364 48.5774 39.3835 46.9581 39.3835Z" fill="black"/>
</svg>
